first trial
nRows=36
nColumns=38

# SIMM Motion File Header:
name Sujet_07_velo_60.mvnx
datacolumns 38
datarows 36
otherdata 1
range 7.7830 8.3670
endheader
time pelvis_tilt  pelvis_list  pelvis_rotation  pelvis_tx  pelvis_ty  pelvis_tz  hip_flexion_r  hip_adduction_r  hip_rotation_r  knee_angle_r  ankle_angle_r  subtalar_angle_r  mtp_angle_r  hip_flexion_l  hip_adduction_l  hip_rotation_l  knee_angle_l  ankle_angle_l  subtalar_angle_l  mtp_angle_l  lumbar_extension  lumbar_bending  lumbar_rotation  arm_flex_r  arm_add_r  arm_rot_r  elbow_flex_r  pro_sup_r  wrist_flex_r  wrist_dev_r  arm_flex_l  arm_add_l  arm_rot_l  elbow_flex_l  pro_sup_l  wrist_flex_l  wrist_dev_l
7.7830	-27.7129	-3.8295	-58.3332	0.0000	1.2500	-0.0000	86.2674	1.6800	-6.2162	72.3405	9.7253	-6.3137	-0.0000	59.0311	-14.8213	-4.0754	64.7196	-3.1196	0.9510	0.0000	-17.2185	-2.7454	1.8311	101.2434	1.3194	27.2274	7.3618	64.2004	-48.7266	-44.5762	92.7343	-3.2335	40.1803	5.1536	41.8049	-40.0730	-42.9649	
7.8000	-27.6170	-3.4719	-57.6549	0.0000	1.2500	-0.0000	84.2471	1.3676	-6.9470	68.7418	8.7940	-6.1632	-0.0000	60.7669	-14.7130	-3.4268	68.6599	-2.7998	1.4598	0.0000	-17.2914	-2.7736	1.6609	101.3816	1.2803	27.2127	7.1587	63.9297	-48.7724	-44.6888	92.9576	-3.1755	40.2412	4.9508	42.0595	-39.9976	-42.8948	
7.8170	-27.5170	-3.1574	-56.9253	0.0000	1.2500	-0.0000	82.0732	1.0224	-7.3643	65.0834	7.6410	-5.9647	0.0000	62.5531	-14.5545	-2.7447	72.4852	-2.5074	2.0185	-0.0000	-17.3609	-2.7616	1.4850	101.5635	1.1762	27.2091	7.0289	63.7246	-48.8168	-44.8303	93.1438	-3.1478	40.3214	4.7901	42.2652	-39.9254	-42.8261	
7.8330	-27.4120	-2.8658	-56.1511	0.0000	1.2500	-0.0000	79.7469	0.6462	-7.5785	61.3617	6.2478	-5.7215	-0.0000	64.4001	-14.3413	-2.0431	76.2097	-2.2644	2.6351	0.0000	-17.4282	-2.7208	1.3013	101.7783	1.0172	27.2074	6.9557	63.5621	-48.8581	-44.9799	93.3075	-3.1364	40.4205	4.6487	42.4368	-39.8670	-42.7662	
7.8500	-27.3196	-2.5905	-55.3683	0.0000	1.2500	-0.0000	77.3629	0.2698	-7.6951	57.6524	4.5741	-5.4818	-0.0000	66.3165	-14.0721	-1.3497	79.7691	-2.0391	3.2485	-0.0000	-17.4789	-2.6551	1.1102	101.9384	0.8387	27.1766	6.9151	63.4395	-48.8837	-45.1038	93.3984	-3.1052	40.5401	4.5370	42.5463	-39.8662	-42.7320	
7.8670	-27.2420	-2.3325	-54.5828	0.0000	1.2500	-0.0000	74.9091	-0.0912	-7.8032	53.9133	2.5605	-5.2524	0.0000	68.3141	-13.7461	-0.7107	83.1658	-1.8497	3.8978	0.0000	-17.5048	-2.5575	0.9078	101.9969	0.6422	27.1029	6.9006	63.3691	-48.8833	-45.1828	93.3634	-3.0423	40.7007	4.4621	42.5419	-39.9594	-42.7365	
7.8830	-27.1774	-2.0902	-53.7881	0.0000	1.2500	-0.0000	72.3951	-0.4561	-7.8171	50.1888	0.2663	-5.0252	-0.0000	70.3766	-13.3616	-0.0896	86.3969	-1.6770	4.5437	-0.0000	-17.5133	-2.4359	0.6977	102.0009	0.4272	27.0000	6.9186	63.3384	-48.8673	-45.2363	93.2556	-2.9607	40.8813	4.4169	42.4756	-40.1103	-42.7669	
7.9000	-27.1368	-1.8521	-53.0035	0.0000	1.2500	-0.0000	69.9486	-0.8560	-7.5733	46.6814	-2.1706	-4.8264	0.0000	72.4716	-12.9151	0.6115	89.3913	-1.4320	5.0046	0.0000	-17.5134	-2.3166	0.4923	102.0026	0.2268	26.8776	6.9640	63.3079	-48.8542	-45.2889	93.1844	-2.8620	41.0215	4.3895	42.4746	-40.2542	-42.8011	
7.9170	-27.1288	-1.6199	-52.2331	0.0000	1.2500	-0.0000	67.5808	-1.3356	-6.9308	43.3991	-4.7896	-4.6847	-0.0000	74.6174	-12.4008	1.4554	92.1490	-1.0922	5.1907	0.0000	-17.5100	-2.2073	0.2987	102.0388	0.0626	26.7099	7.0406	63.2810	-48.8520	-45.3512	93.2156	-2.7340	41.0868	4.3767	42.6096	-40.3774	-42.8357	
7.9330	-27.1451	-1.3906	-51.4714	0.0000	1.2500	-0.0000	65.2776	-1.8882	-6.0328	40.3192	-7.5513	-4.5733	0.0000	76.7928	-11.8133	2.3711	94.6720	-0.6819	5.1925	0.0000	-17.4983	-2.1003	0.1098	102.0724	-0.0866	26.5225	7.1446	63.2539	-48.8526	-45.4126	93.2835	-2.5884	41.1118	4.3811	42.8099	-40.4935	-42.8739	
7.9500	-27.1712	-1.1454	-50.7225	0.0000	1.2500	-0.0000	63.1288	-2.4636	-5.1349	37.6006	-10.1996	-4.4319	-0.0000	78.9075	-11.1553	3.2584	96.8925	-0.1824	5.0990	-0.0000	-17.4727	-1.9989	-0.0826	102.0448	-0.2522	26.4023	7.2597	63.1762	-48.8503	-45.4655	93.3006	-2.4625	41.1400	4.3994	42.9906	-40.5793	-42.9028	
7.9670	-27.1976	-0.8736	-49.9888	0.0000	1.2500	-0.0000	61.1535	-3.0434	-4.2257	35.2850	-12.7298	-4.2147	-0.0000	80.9427	-10.4174	4.1220	98.8093	0.4378	4.9170	0.0000	-17.4282	-1.9048	-0.2851	101.9048	-0.4624	26.4005	7.3992	63.0079	-48.8406	-45.5035	93.2187	-2.3745	41.1748	4.4380	43.1283	-40.6087	-42.9133	
7.9830	-27.2331	-0.5856	-49.2675	0.0000	1.2500	-0.0000	59.3333	-3.6457	-3.3075	33.3248	-15.1492	-3.9573	0.0000	82.9164	-9.6182	4.9556	100.4234	1.1466	4.6380	0.0000	-17.3699	-1.8168	-0.4913	101.7042	-0.6892	26.4659	7.5506	62.7890	-48.8280	-45.5331	93.0862	-2.3068	41.2129	4.4909	43.2465	-40.6077	-42.9143	
8.0000	-27.2908	-0.2943	-48.5532	0.0000	1.2500	-0.0000	57.7017	-4.2457	-2.6495	31.7677	-17.2185	-3.7153	-0.0000	84.7973	-8.8168	5.6500	101.6701	1.8686	4.3289	-0.0000	-17.3072	-1.7340	-0.6901	101.5391	-0.8801	26.5313	7.6578	62.5895	-48.8210	-45.5666	92.9603	-2.2434	41.2874	4.5368	43.3300	-40.6311	-42.9205	
8.0170	-27.3779	0.0173	-47.8148	0.0000	1.2500	-0.0000	56.2439	-4.8386	-2.3581	30.6055	-18.8765	-3.4874	0.0000	86.6041	-8.0144	6.1655	102.5290	2.5934	4.0319	0.0000	-17.2440	-1.6560	-0.8844	101.4511	-1.0065	26.5954	7.6893	62.4258	-48.8244	-45.6128	92.8623	-2.1861	41.4433	4.5648	43.3504	-40.7117	-42.9402	
8.0330	-27.4867	0.3335	-47.0825	0.0000	1.2500	-0.0000	54.9738	-5.4052	-2.3157	29.8648	-20.1819	-3.2643	-0.0000	88.3233	-7.2276	6.5504	103.0204	3.3314	3.7074	-0.0000	-17.1764	-1.5832	-1.0712	101.3988	-1.0973	26.6600	7.6759	62.2815	-48.8333	-45.6629	92.7709	-2.1330	41.6356	4.5863	43.3360	-40.8168	-42.9652	
8.0500	-27.6098	0.5926	-46.4439	0.0000	1.2500	-0.0000	53.9684	-5.8928	-2.4479	29.6545	-21.0728	-3.0940	0.0000	89.8776	-6.5426	6.8411	103.1419	4.0387	3.3010	-0.0000	-17.1026	-1.5154	-1.2304	101.3529	-1.1864	26.6623	7.6548	62.1768	-48.8414	-45.7029	92.6797	-2.0632	41.7625	4.6133	43.3572	-40.9033	-42.9857	
8.0670	-27.7511	0.7666	-45.9266	0.0000	1.2500	-0.0000	53.2555	-6.2919	-2.7312	30.0325	-21.4914	-3.0122	0.0000	91.2771	-5.9873	7.0761	102.8912	4.7154	2.7508	0.0000	-17.0209	-1.4497	-1.3538	101.3153	-1.2855	26.5542	7.6377	62.1302	-48.8518	-45.7277	92.5889	-1.9637	41.7554	4.6555	43.4680	-40.9366	-42.9890	
8.0830	-27.9094	0.8831	-45.5034	0.0000	1.2500	-0.0000	52.8109	-6.6134	-3.1693	30.9426	-21.4942	-2.9902	-0.0000	92.5160	-5.5403	7.2426	102.2712	5.3625	2.1189	0.0000	-16.9330	-1.3888	-1.4496	101.2838	-1.3828	26.3839	7.6132	62.1232	-48.8614	-45.7424	92.4986	-1.8474	41.6830	4.7027	43.6142	-40.9513	-42.9878	
8.1000	-28.0701	0.9631	-45.1808	0.0000	1.2500	-0.0000	52.6353	-6.8431	-3.7244	32.3190	-21.1916	-2.9886	0.0000	93.4940	-5.2135	7.3096	101.2870	5.9381	1.5375	-0.0000	-16.8421	-1.3414	-1.5216	101.2230	-1.4769	26.2328	7.5841	62.1209	-48.8556	-45.7486	92.4024	-1.7312	41.6490	4.7373	43.7041	-41.0079	-43.0104	
8.1170	-28.2379	1.0191	-44.9634	0.0000	1.2500	-0.0000	52.7522	-6.9680	-4.4612	34.1863	-20.5562	-3.0360	0.0000	94.1962	-5.0334	7.3044	99.9192	6.4405	1.0390	-0.0000	-16.7426	-1.3141	-1.5730	101.0853	-1.5695	26.0999	7.5507	62.1306	-48.8221	-45.7435	92.2984	-1.6120	41.7093	4.7517	43.6878	-41.1495	-43.0807	
8.1330	-28.4087	1.0375	-44.8475	0.0000	1.2500	-0.0000	53.1411	-7.0116	-5.3092	36.5123	-19.6164	-3.1184	-0.0000	94.6396	-4.9780	7.2153	98.1868	6.8718	0.5967	-0.0000	-16.6401	-1.3001	-1.6006	100.9183	-1.6592	25.9864	7.5125	62.1451	-48.7730	-45.7298	92.1886	-1.4928	41.8081	4.7540	43.6155	-41.3328	-43.1746	
8.1500	-28.5548	1.0006	-44.8270	0.0000	1.2500	-0.0000	53.7364	-7.0146	-6.0304	39.1525	-18.5672	-3.1332	0.0000	94.7708	-4.9877	6.9505	96.1518	7.1945	0.2498	0.0000	-16.5543	-1.2871	-1.5979	100.8294	-1.7402	25.9769	7.4718	62.1078	-48.7300	-45.7181	92.0722	-1.3993	41.8818	4.7511	43.5456	-41.4882	-43.2493	
8.1670	-28.6721	0.8890	-44.9012	0.0000	1.2500	-0.0000	54.5328	-6.9755	-6.5620	42.1099	-17.3974	-3.0395	-0.0000	94.5770	-5.0441	6.4424	93.8120	7.3822	0.0345	-0.0000	-16.4936	-1.2675	-1.5567	100.9003	-1.8162	26.1741	7.4212	61.9306	-48.7024	-45.7171	91.9333	-1.3406	41.9089	4.7546	43.5021	-41.5992	-43.2864	
8.1830	-28.7643	0.7209	-45.0717	0.0000	1.2500	-0.0000	55.5343	-6.8979	-6.9720	45.3885	-16.1102	-2.8846	0.0000	94.0714	-5.1589	5.7572	91.1728	7.4613	-0.0952	0.0000	-16.4497	-1.2489	-1.4851	101.0498	-1.8830	26.4754	7.3679	61.7012	-48.6809	-45.7182	91.7877	-1.3077	41.9108	4.7530	43.4611	-41.6824	-43.3045	
8.2000	-28.8135	0.5351	-45.3360	0.0000	1.2500	-0.0000	56.6885	-6.8223	-7.2192	48.8519	-14.9239	-2.6964	0.0000	93.2404	-5.3160	5.0010	88.3078	7.4732	-0.2268	0.0000	-16.4170	-1.2420	-1.4023	101.1403	-1.9229	26.6565	7.3376	61.6265	-48.6589	-45.7066	91.6815	-1.2995	41.8880	4.7182	43.4093	-41.7181	-43.3168	
8.2170	-28.8060	0.3464	-45.6890	0.0000	1.2500	-0.0000	57.9900	-6.7574	-7.2733	52.5133	-13.8624	-2.4920	0.0000	92.0543	-5.5010	4.1702	85.2210	7.4507	-0.3694	-0.0000	-16.3931	-1.2524	-1.3149	101.1014	-1.9266	26.5542	7.3593	61.8629	-48.6353	-45.6755	91.6457	-1.3122	41.8470	4.6228	43.3392	-41.6781	-43.3202	
8.2330	-28.7546	0.1409	-46.1352	0.0000	1.2500	-0.0000	59.4444	-6.6801	-7.1706	56.3618	-12.9011	-2.2588	0.0000	90.5436	-5.7117	3.2550	81.9104	7.3611	-0.5157	-0.0000	-16.3805	-1.2745	-1.2161	101.0035	-1.9042	26.3315	7.4037	62.2536	-48.6111	-45.6317	91.6492	-1.3500	41.7814	4.4941	43.2583	-41.5906	-43.3179	
8.2500	-28.6819	-0.0863	-46.6858	0.0000	1.2500	-0.0000	61.0160	-6.5800	-6.9696	60.2228	-12.1918	-1.9767	0.0000	88.7834	-5.9542	2.3498	78.4383	7.1479	-0.7250	-0.0000	-16.3813	-1.3022	-1.1043	100.9207	-1.8665	26.2534	7.4108	62.5364	-48.5827	-45.5797	91.6452	-1.4236	41.6721	4.3853	43.1757	-41.5201	-43.3331	
8.2670	-28.5841	-0.3332	-47.3651	0.0000	1.2500	-0.0000	62.7059	-6.4536	-6.6907	64.0993	-11.8243	-1.6387	-0.0000	86.7436	-6.2286	1.4485	74.7815	6.8549	-1.0834	-0.0000	-16.3991	-1.3385	-0.9804	100.8579	-1.8127	26.4787	7.3468	62.5523	-48.5457	-45.5175	91.6140	-1.5543	41.4866	4.3278	43.1197	-41.4939	-43.3717	
8.2830	-28.4631	-0.6000	-48.1479	0.0000	1.2500	-0.0000	64.5131	-6.2871	-6.3257	67.9880	-11.7110	-1.2450	-0.0000	84.4536	-6.5188	0.5336	70.9606	6.4392	-1.5040	-0.0000	-16.4304	-1.3808	-0.8436	100.8090	-1.7422	26.8485	7.2458	62.4604	-48.5045	-45.4471	91.5743	-1.7205	41.2572	4.2904	43.0620	-41.4847	-43.4276	
8.3000	-28.3488	-0.8956	-48.9738	0.0000	1.2500	-0.0000	66.3977	-6.0598	-5.8907	71.7053	-11.7384	-0.7840	0.0000	82.0764	-6.8210	-0.3130	67.1039	5.7143	-1.7849	-0.0000	-16.4669	-1.4136	-0.6895	100.8317	-1.6650	27.1510	7.1506	62.4760	-48.4684	-45.3800	91.5370	-1.8688	41.0623	4.2321	42.9267	-41.4747	-43.5060	
8.3170	-28.2482	-1.2237	-49.8357	0.0000	1.2500	-0.0000	68.3617	-5.7578	-5.3911	75.2090	-11.9289	-0.2036	-0.0000	79.6242	-7.1412	-1.0876	63.1929	4.5774	-1.8044	0.0000	-16.5113	-1.4326	-0.5105	100.9924	-1.5915	27.2900	7.0740	62.7191	-48.4436	-45.3270	91.5068	-1.9822	40.9372	4.1297	42.6651	-41.4438	-43.6067	
8.3330	-28.1527	-1.5807	-50.7407	0.0000	1.2500	-0.0000	70.4021	-5.3853	-4.8362	78.5414	-12.2585	0.4467	-0.0000	77.0809	-7.4763	-1.8067	59.2477	3.1307	-1.6774	-0.0000	-16.5617	-1.4425	-0.3144	101.2250	-1.5103	27.3620	7.0030	63.0697	-48.4239	-45.2773	91.4794	-2.0776	40.8465	4.0060	42.3255	-41.4123	-43.7299	
8.3500	-28.0681	-1.9659	-51.6499	0.0000	1.2500	-0.0000	72.4712	-4.9579	-4.2430	81.6462	-12.5460	1.0269	0.0000	74.5656	-7.8277	-2.4067	55.4553	1.4962	-1.5578	-0.0000	-16.6018	-1.4416	-0.1195	101.3891	-1.3995	27.4447	6.9422	63.3833	-48.3997	-45.2098	91.4528	-2.1524	40.7633	3.8884	41.9780	-41.4226	-43.8812	
8.3670	-27.9999	-2.3905	-52.5706	0.0000	1.2500	-0.0000	74.5782	-4.4659	-3.6018	84.4975	-12.8309	1.4883	-0.0000	72.1049	-8.2175	-2.8595	51.8518	-0.3599	-1.4938	0.0000	-16.6249	-1.4236	0.0672	101.3869	-1.2353	27.5652	6.8965	63.6039	-48.3631	-45.1026	91.4511	-2.1948	40.6663	3.7852	41.6489	-41.5067	-44.0807	
